<?xml version="1.0" encoding="UTF-8"?>
<!-- Generator: Adobe Illustrator 24.3.0, SVG Export Plug-In . SVG Version: 6.00 Build 0)  -->
<svg version="1.1" id="Layer_1" xmlns="http://www.w3.org/2000/svg" xmlns:xlink="http://www.w3.org/1999/xlink" x="0px" y="0px" viewBox="0 0 958 426.8" style="enable-background:new 0 0 958 426.8;" xml:space="preserve">
<style type="text/css">
	.st0{fill:none;stroke:#3D3783;stroke-width:17;stroke-miterlimit:10;}
	.st1{fill:#3D3783;}
</style>
<path class="st0" d="M352.8,154.4V30.1c0-4.5,3.7-8.3,8.3-8.3h216.6c4.5,0,8.3,3.7,8.3,8.3v124.3"/>
<polygon class="st1" points="360.5,173.9 385.3,159.6 494.7,220.4 494.7,200.6 388,137.8 360.5,152.5 "/>
<polygon class="st1" points="401.7,150.8 426.3,136.5 535.7,197.3 535.7,177.4 429,114.7 401.7,129.4 "/>
<polygon class="st1" points="443.6,127.3 468.3,113 577.7,173.8 577.7,153.9 471,91.2 443.6,105.9 "/>
<g>
	<path class="st1" d="M54,286.4c0,2.8-0.5,5.3-1.6,7.7c-1.2,2.3-2.6,4.4-4.2,6c-1.9,1.6-3.7,3-6,3.9c-2.3,0.9-4.6,1.4-7.2,1.4H22.6   c-2.8,0-5.3-0.5-7.4-1.6c-2.1-1.2-3.9-2.6-5.6-4.2c-1.4-1.9-2.6-3.9-3.5-6.3C5.5,291,5,288.5,5,285.9v-17.4h10.9v16.9   c0,1.2,0.2,2.3,0.7,3.2c0.5,1.2,1.2,2.1,1.9,2.8c0.7,0.9,1.9,1.4,2.8,2.1c1.2,0.5,2.3,0.7,3.7,0.7h8.4c3.2,0,5.6-0.7,7.4-2.3   c1.9-1.6,2.6-3.7,2.6-6.5v-23.9h10.9v24.8H54z M22.6,262.9c0-1.6,0.5-3,1.6-4.2c1.2-1.2,2.6-1.6,3.9-1.6c1.6,0,3,0.5,4.2,1.6   c1.2,1.2,1.6,2.6,1.6,4.2c0,1.6-0.5,3-1.6,3.9c-1.2,1.2-2.6,1.6-4.2,1.6c-1.6,0-3-0.5-3.9-1.6C23.3,265.7,22.6,264.6,22.6,262.9z"/>
	<path class="st1" d="M73.9,287.5c-3.7,0-6.3-1.2-7.9-3.5c-1.6-2.3-2.6-5.3-2.6-9.3v-36.2h10.9v34.1c0,1.9,0.2,2.8,0.7,3.2   c0.5,0.5,1.6,0.7,3.2,0.7h1.6v10.9H73.9z"/>
	<path class="st1" d="M119.4,287.5c-1.9,0-3.5-0.2-4.6-0.7c-1.4-0.5-2.8-1.6-4.2-3.2c-1.4,1.2-3,2.3-5.1,3c-1.9,0.7-3.7,1.2-5.6,1.2   c-1.9,0-3.7-0.5-5.3-1.2c-1.6-0.7-3.2-1.9-4.4-3.2c-0.9,1.6-2.1,2.8-3.9,3.5c-1.6,0.7-3.7,0.9-6,0.9h-0.5c-0.5,0-0.9,0-1.6-0.2   c-0.5-0.2-0.7-0.2-0.7-0.5v-9.5c0-0.2,0.2-0.5,0.7-0.5c0.5,0,0.9-0.2,1.6-0.2h1.6c1.2,0,2.3-0.5,3.2-1.2c0.9-0.7,1.4-2.1,1.4-4.2   c0-2.1,0.2-4.2,0.9-6.3c0.7-2.1,1.6-3.7,2.8-5.3c1.2-1.6,2.8-2.8,4.4-3.7c1.9-0.9,3.7-1.4,5.8-1.4c2.3,0,4.2,0.5,6,1.4   c1.9,0.9,3.2,2.3,4.6,3.7c1.2,1.6,2.3,3.2,2.8,5.3c0.7,2.1,0.9,3.9,0.9,6c0,2.3,0.2,3.7,0.9,4.2c0.7,0.7,1.9,0.9,3.5,0.9h1.4v10.9   h-0.7V287.5z M100.8,264.8c-1.4,0-2.8,0.5-3.7,1.4c-0.9,0.9-1.6,2.6-1.6,4.6c0,1.9,0.5,3.2,1.6,4.2c1.2,0.9,2.3,1.4,3.7,1.4   c1.9,0,3-0.7,3.9-1.9c0.9-1.2,1.2-2.6,1.2-3.9c0-1.4-0.5-2.8-1.4-4.2C103.8,265.5,102.4,264.8,100.8,264.8z"/>
	<path class="st1" d="M145.1,287.5c-1.9,0-3.5-0.7-4.9-2.1c-0.7,0.7-1.4,1.2-2.3,1.6s-1.9,0.5-2.8,0.5h-14.4c-0.5,0-0.9,0-1.6-0.2   c-0.5-0.2-0.7-0.2-0.7-0.5v-9.5c0-0.2,0.2-0.5,0.7-0.5s0.9-0.2,1.6-0.2h10.9c2.1,0,3.2-1.2,3.2-3.5v-11.6h10.9v11.6   c0,2.3,1.2,3.5,3.2,3.5h1.6v10.9H145.1z M123.1,248.8c0-1.6,0.5-3,1.6-4.2c1.2-1.2,2.6-1.6,3.9-1.6c1.6,0,3,0.5,4.2,1.6   c1.2,1.2,1.6,2.6,1.6,4.2c0,1.6-0.5,3-1.6,3.9c-1.2,1.2-2.6,1.6-4.2,1.6c-1.6,0-3-0.5-3.9-1.6C123.8,251.6,123.1,250.4,123.1,248.8   z M136.6,248.8c0-1.6,0.5-3,1.6-4.2c1.2-1.2,2.6-1.6,4.2-1.6c1.6,0,3,0.5,4.2,1.6c1.2,1.2,1.6,2.6,1.6,4.2c0,1.6-0.5,3-1.6,3.9   c-1.2,1.2-2.6,1.6-4.2,1.6c-1.6,0-3-0.5-4.2-1.6C137,251.6,136.6,250.4,136.6,248.8z"/>
	<path class="st1" d="M148.2,277.3c0-0.2,0.2-0.5,0.7-0.5s0.9-0.2,1.6-0.2h6.3c2.3,0,4.6-0.2,6.3-0.5c1.9-0.2,3.5-0.7,4.9-1.4   c0.5-0.2,1.6-0.7,3.7-1.9c2.1-1.2,4.9-2.8,8.6-4.6c-0.2-0.9-0.7-1.6-1.6-2.3c-0.9-0.7-2.6-0.9-4.9-0.9h-16.2l-1.6-10.7h19.7   c5.3,0,9.5,1.6,12.1,4.9c2.6,3.2,3.9,7.9,3.9,13.9l-16,8.8c-3.2,1.9-6,3.2-8.8,4.2c-2.6,0.9-5.6,1.4-8.8,1.4h-8.1   c-0.5,0-0.9,0-1.6-0.2c-0.5-0.2-0.7-0.2-0.7-0.5v-9.5H148.2z M169.3,242.3c0-1.6,0.5-3,1.6-4.2c1.2-1.2,2.6-1.6,3.9-1.6   c1.6,0,3,0.5,4.2,1.6c1.2,1.2,1.6,2.6,1.6,4.2c0,1.6-0.5,3-1.6,3.9c-1.2,1.2-2.6,1.6-4.2,1.6c-1.6,0-3-0.5-3.9-1.6   C170,245.3,169.3,243.9,169.3,242.3z"/>
	<path class="st1" d="M212.2,287.5c-3.7,0-6.3-1.2-7.9-3.5c-1.6-2.3-2.6-5.3-2.6-9.3v-36.2h10.9v34.1c0,1.9,0.2,2.8,0.7,3.2   c0.5,0.5,1.6,0.7,3.2,0.7h1.6v10.9H212.2z"/>
	<path class="st1" d="M215.7,277.3c0-0.2,0.2-0.5,0.7-0.5s0.9-0.2,1.6-0.2h7c1.9,0,3-1.2,3-3.2v-11.8h10.9v12.1c0,1.4,0.2,2.3,1.2,3   c0.7,0.7,1.4,0.9,2.3,0.9s1.6-0.2,2.6-0.9c0.7-0.7,1.2-1.6,1.2-3v-12.1h10.7v12.1c0,1.4,0.5,2.3,1.2,3c0.7,0.7,1.6,0.9,2.6,0.9   s1.6-0.2,2.3-0.9c0.7-0.7,1.2-1.6,1.2-3v-12.1h10.9v12.5c0,2.1-0.2,3.9-0.7,5.8s-1.2,3.2-2.3,4.4c-0.9,1.2-2.3,2.3-3.7,3   c-1.6,0.7-3.2,1.2-5.3,1.2c-4.2,0-7.4-1.4-9.5-4.4c-1.2,1.4-2.6,2.6-4.4,3.2c-1.6,0.7-3.5,1.2-5.1,1.2c-1.9,0-3.5-0.5-5.1-1.2   c-1.6-0.7-2.8-1.9-3.9-3.2c-0.9,0.9-2.1,1.9-3.5,2.6c-1.4,0.7-3.2,0.9-5.8,0.9H218c-0.5,0-0.9,0-1.6-0.2c-0.5-0.2-0.7-0.2-0.7-0.5   L215.7,277.3L215.7,277.3z"/>
	<path class="st1" d="M345.6,288.7c0,2.6-0.5,4.6-1.4,6.7c-0.9,2.1-2.1,3.7-3.7,5.1c-1.6,1.4-3.5,2.6-5.6,3.2   c-2.1,0.7-4.4,1.2-6.7,1.2h-10.7c-3.5,0-6.3-0.5-8.8-1.2c-2.3-0.7-4.4-2.1-6-3.7c-1.6-1.6-2.8-3.9-3.5-6.5   c-0.7-2.6-1.2-5.8-1.2-9.5v-15.5H309v17.4c0,2.3,0.7,4.4,2.3,6c1.6,1.6,3.9,2.6,7.4,2.6h11.1c0.7,0,1.2-0.2,1.9-0.5   c0.7-0.2,1.2-0.7,1.6-1.2s0.9-0.9,1.2-1.6c0.2-0.5,0.5-1.2,0.5-1.6s-0.2-0.9-0.7-1.4s-1.2-0.7-2.3-0.7h-11.6l-1.2-10.9h26.2v10.9   v1.2H345.6z"/>
	<path class="st1" d="M343.5,277.3c0-0.2,0.2-0.5,0.7-0.5s0.9-0.2,1.6-0.2h7c1.9,0,3-1.2,3-3.2v-11.8h10.9v12.1c0,1.4,0.2,2.3,1.2,3   c0.7,0.7,1.4,0.9,2.3,0.9s1.6-0.2,2.6-0.9c0.7-0.7,1.2-1.6,1.2-3v-12.1h10.7v12.1c0,1.4,0.5,2.3,1.2,3c0.7,0.7,1.6,0.9,2.6,0.9   s1.6-0.2,2.3-0.9c0.7-0.7,1.2-1.6,1.2-3v-12.1h10.9v12.5c0,2.1-0.2,3.9-0.7,5.8c-0.5,1.9-1.2,3.2-2.3,4.4c-0.9,1.2-2.3,2.3-3.7,3   c-1.6,0.7-3.2,1.2-5.3,1.2c-4.2,0-7.4-1.4-9.5-4.4c-1.2,1.4-2.6,2.6-4.4,3.2c-1.6,0.7-3.5,1.2-5.1,1.2c-1.9,0-3.5-0.5-5.1-1.2   c-1.6-0.7-2.8-1.9-3.9-3.2c-0.9,0.9-2.1,1.9-3.5,2.6c-1.4,0.7-3.2,0.9-5.8,0.9h-7.4c-0.5,0-0.9,0-1.6-0.2c-0.5-0.2-0.7-0.2-0.7-0.5   L343.5,277.3L343.5,277.3z"/>
	<path class="st1" d="M454.9,287.5c-2.8,0-4.9-0.5-6.3-1.2c-1.4-0.7-2.8-1.6-3.9-2.8c-1.2,1.2-2.3,2.1-3.9,2.8   c-1.6,0.7-3.5,1.2-5.8,1.2h-23.7l-1.4-10.7h24.8c0.5,0,0.7,0,1.2-0.2c0.2-0.2,0.5-0.5,0.5-0.7c0-0.5-0.2-0.9-0.5-1.2l-16.9-17.9   l7.7-7.7l22.5,24.1c1.2,1.4,2.3,2.3,3.2,3c0.9,0.7,1.9,0.9,2.8,0.9h0.7v10.9h-0.9V287.5z"/>
	<path class="st1" d="M480.2,287.5c-1.9,0-3.5-0.7-4.9-2.1c-0.7,0.7-1.4,1.2-2.3,1.6s-1.9,0.5-2.8,0.5h-14.6c-0.5,0-0.9,0-1.6-0.2   c-0.5-0.2-0.7-0.2-0.7-0.5v-9.5c0-0.2,0.2-0.5,0.7-0.5c0.5,0,0.9-0.2,1.6-0.2h10.9c2.1,0,3.2-1.2,3.2-3.5v-11.6h10.9v11.6   c0,2.3,1.2,3.5,3.2,3.5h1.6v10.9H480.2z M464.9,248.8c0-1.6,0.5-3,1.6-4.2c1.2-1.2,2.6-1.6,3.9-1.6c1.6,0,3,0.5,4.2,1.6   c1.2,1.2,1.6,2.6,1.6,4.2c0,1.6-0.5,3-1.6,3.9c-1.2,1.2-2.6,1.6-4.2,1.6c-1.6,0-3-0.5-3.9-1.6C465.3,251.6,464.9,250.4,464.9,248.8   z"/>
	<path class="st1" d="M516.9,287.5c1.2,2.8,1.6,5.3,1.6,7.7c0,1.9-0.2,3.7-0.9,5.6c-0.7,1.6-1.6,3-2.8,4.4c-1.2,1.2-2.6,2.1-4.4,2.8   c-1.6,0.7-3.5,1.2-5.6,1.2c-4.9,0-8.6-1.4-11.1-4.2c-2.6-2.8-3.7-6.7-3.7-11.6V288h-4.4c-0.5,0-0.9,0-1.6-0.2   c-0.5-0.2-0.7-0.2-0.7-0.5v-9.5c0-0.2,0.2-0.5,0.7-0.5c0.5,0,0.9-0.2,1.6-0.2h4.4v-5.3c0-4.9,1.2-8.8,3.7-11.6   c2.6-2.8,6.3-4.2,11.1-4.2c2.1,0,3.9,0.2,5.6,0.9c1.6,0.7,3,1.6,4.4,2.8c1.2,1.2,2.1,2.6,2.8,4.4c0.7,1.6,0.9,3.5,0.9,5.6   c0,2.3-0.5,4.6-1.6,7.7h5.3v10.9h-5.3V287.5z M508.3,270.1c0-1.4-0.5-2.6-1.2-3c-0.7-0.7-1.6-0.9-2.6-0.9c-2.8,0-4.2,2.3-4.2,6.7   v3.7c0.9,0,1.9-0.2,2.8-0.5c0.9-0.2,1.9-0.7,2.6-1.4c0.7-0.5,1.4-1.2,1.9-2.1C508,272,508.3,271.1,508.3,270.1z M508.3,294   c0-0.9-0.2-1.9-0.7-2.8c-0.5-0.7-1.2-1.4-1.9-2.1c-0.7-0.5-1.6-0.9-2.6-1.4c-0.9-0.2-1.9-0.5-2.8-0.5v3.7c0,4.4,1.4,6.7,4.2,6.7   c0.9,0,1.9-0.2,2.6-0.9C508,296.6,508.3,295.4,508.3,294z"/>
	<path class="st1" d="M519.6,277.3c0-0.2,0.2-0.5,0.7-0.5c0.5,0,0.9-0.2,1.6-0.2h0.9c1.9,0,3-0.5,3.9-1.2c0.9-0.9,1.4-2.3,1.4-4.2   c0-2.1,0.2-4.2,0.9-6.3c0.7-2.1,1.6-3.9,2.8-5.6c1.2-1.6,2.8-3,4.4-3.9c1.9-0.9,3.7-1.4,5.8-1.4c2.3,0,4.4,0.5,6.3,1.6   c1.9,1.2,3.5,2.3,4.6,4.2c1.2,1.6,2.3,3.5,3,5.6c0.7,2.1,1.2,4.2,1.2,6c0,2.3-0.5,4.4-1.2,6.3c-0.7,1.9-1.9,3.7-3,5.1   c-1.4,1.4-2.8,2.6-4.6,3.5s-3.9,1.2-6,1.2c-4.4,0-7.9-1.4-10-4.2c-1.9,2.8-4.9,4.2-8.8,4.2H522c-0.5,0-0.9,0-1.6-0.2   c-0.5-0.2-0.7-0.2-0.7-0.5L519.6,277.3L519.6,277.3z M542.4,265c-1.4,0-2.8,0.5-3.7,1.4s-1.4,2.6-1.4,4.6c0,1.9,0.5,3.2,1.6,4.2   c0.9,0.9,2.3,1.4,3.7,1.4c1.6,0,3-0.5,3.9-1.6c0.9-1.2,1.4-2.6,1.4-4.2c0-1.4-0.5-2.8-1.4-4.2C545.6,265.7,544.2,265,542.4,265z"/>
	<path class="st1" d="M624.3,272.9c0,4.6-1.2,8.1-3.5,10.9c-2.3,2.6-6,3.9-10.7,3.9c-9.7,0-14.4-4.9-14.4-14.6v-7   c-2.6,0-3.9,1.6-3.9,4.6v34.1h-10.9V272c0-5.3,1.4-9.5,3.9-12.3c2.6-3,6.5-4.4,11.6-4.4h12.1c5.3,0,9.3,1.4,11.8,4.4   C622.9,262.7,624.1,267.1,624.3,272.9z M613.4,273.1c0-2.3-0.5-4.2-1.4-5.3s-2.8-1.6-5.6-1.6v7c0,2.3,1.2,3.7,3.7,3.7   C612.2,276.9,613.4,275.7,613.4,273.1z"/>
	<path class="st1" d="M644.2,287.5c-3.7,0-6.3-1.2-7.9-3.5c-1.6-2.3-2.6-5.3-2.6-9.3v-36.2h10.9v34.1c0,1.9,0.2,2.8,0.7,3.2   c0.5,0.5,1.6,0.7,3.2,0.7h1.6v10.9H644.2z"/>
	<path class="st1" d="M650.3,287.5c-0.5,0-0.9,0-1.6-0.2c-0.5-0.2-0.7-0.2-0.7-0.5v-9.5c0-0.2,0.2-0.5,0.7-0.5   c0.5,0,0.9-0.2,1.6-0.2h2.6v-38.1h10.9v21.6c1.6-1.6,3.5-2.8,5.1-3.7c1.6-0.7,3.5-1.2,5.8-1.2c2.3,0,4.2,0.5,5.8,1.6   c1.6,1.2,3,2.6,4.2,4.2c1.2,1.6,1.9,3.7,2.6,5.8c0.5,2.1,0.7,4.2,0.7,6c0,1.2,0,2.3-0.2,3.5h2.8v10.9h-40.1V287.5z M673,266.4   c-1.2,0-2.6,0.9-3.9,2.6c-1.4,1.6-3,4.2-5.1,7.7h10c0.7,0,1.4-0.2,1.9-0.9c0.5-0.7,0.9-1.6,0.9-2.8c0-1.6-0.5-3.2-1.2-4.4   C675.1,267.1,674.2,266.4,673,266.4z M672.1,243.2c0-1.6,0.5-3,1.6-4.2s2.6-1.6,3.9-1.6c1.6,0,3,0.5,4.2,1.6s1.6,2.6,1.6,4.2   c0,1.6-0.5,3-1.6,3.9c-1.2,1.2-2.6,1.6-4.2,1.6s-3-0.5-3.9-1.6C672.5,246.2,672.1,244.8,672.1,243.2z"/>
	<path class="st1" d="M687.9,277.3c0-0.2,0.2-0.5,0.7-0.5c0.5,0,0.9-0.2,1.6-0.2h10.7c2.3,0,3.2-1.2,3.2-3.5v-11.6H715v12.5   c0,1.6-0.2,3.2-0.9,4.9s-1.4,3-2.6,4.2c-0.9,1.2-2.3,2.3-3.7,3c-1.4,0.7-3,1.2-4.6,1.2h-13.2c-0.5,0-0.9,0-1.6-0.2   c-0.5-0.2-0.7-0.2-0.7-0.5v-9.3H687.9z M696.7,248.8c0-1.6,0.5-3,1.6-4.2c1.2-1.2,2.6-1.6,3.9-1.6c1.6,0,3,0.5,4.2,1.6   c1.2,1.2,1.6,2.6,1.6,4.2c0,1.6-0.5,3-1.6,3.9c-1.2,1.2-2.6,1.6-4.2,1.6c-1.6,0-3-0.5-3.9-1.6C697.1,251.6,696.7,250.4,696.7,248.8   z"/>
	<path class="st1" d="M787.9,286.4c0,2.8-0.5,5.3-1.6,7.7c-1.2,2.3-2.6,4.4-4.2,6c-1.9,1.6-3.7,3-6,3.9c-2.3,0.9-4.6,1.4-7.2,1.4   h-12.3c-2.8,0-5.3-0.5-7.4-1.6c-2.1-1.2-3.9-2.6-5.6-4.2c-1.4-1.9-2.6-3.9-3.5-6.3c-0.7-2.3-1.2-4.9-1.2-7.4v-17.4h10.9v16.9   c0,1.2,0.2,2.3,0.7,3.2c0.5,1.2,1.2,2.1,1.9,2.8c0.7,0.9,1.9,1.4,2.8,2.1c1.2,0.5,2.3,0.7,3.7,0.7h8.4c3.2,0,5.6-0.7,7.4-2.3   c1.9-1.6,2.6-3.7,2.6-6.5v-23.9h10.9v24.8H787.9z M756.8,262.9c0-1.6,0.5-3,1.6-4.2s2.6-1.6,3.9-1.6c1.6,0,3,0.5,4.2,1.6   c1.2,1.2,1.6,2.6,1.6,4.2c0,1.6-0.5,3-1.6,3.9c-1.2,1.2-2.6,1.6-4.2,1.6c-1.6,0-3-0.5-3.9-1.6C757.2,265.7,756.8,264.6,756.8,262.9   z"/>
	<path class="st1" d="M807.8,287.5c-3.7,0-6.3-1.2-7.9-3.5c-1.6-2.3-2.6-5.3-2.6-9.3v-36.2h10.9v34.1c0,1.9,0.2,2.8,0.7,3.2   c0.5,0.5,1.6,0.7,3.2,0.7h1.6v10.9H807.8z"/>
	<path class="st1" d="M811.5,277.3c0-0.2,0.2-0.5,0.7-0.5c0.5,0,0.9-0.2,1.6-0.2h0.9c1.9,0,3-0.5,3.9-1.2c0.9-0.9,1.4-2.3,1.4-4.2   c0-2.1,0.2-4.2,0.9-6.3c0.7-2.1,1.6-3.9,2.8-5.6c1.2-1.6,2.8-3,4.4-3.9c1.9-0.9,3.7-1.4,5.8-1.4c2.3,0,4.4,0.5,6.3,1.6   c1.9,1.2,3.5,2.3,4.6,4.2c1.2,1.6,2.3,3.5,3,5.6c0.7,2.1,1.2,4.2,1.2,6c0,2.3-0.5,4.4-1.2,6.3c-0.7,1.9-1.9,3.7-3,5.1   c-1.4,1.4-2.8,2.6-4.6,3.5s-3.9,1.2-6,1.2c-4.4,0-7.9-1.4-10-4.2c-1.9,2.8-4.9,4.2-8.8,4.2h-1.6c-0.5,0-0.9,0-1.6-0.2   c-0.5-0.2-0.7-0.2-0.7-0.5L811.5,277.3L811.5,277.3z M834.3,265c-1.4,0-2.8,0.5-3.7,1.4s-1.4,2.6-1.4,4.6c0,1.9,0.5,3.2,1.6,4.2   c0.9,0.9,2.3,1.4,3.7,1.4c1.6,0,3-0.5,3.9-1.6c0.9-1.2,1.4-2.6,1.4-4.2c0-1.4-0.5-2.8-1.4-4.2C837.3,265.7,835.9,265,834.3,265z"/>
	<path class="st1" d="M846.1,294.5h2.1c2.3,0,4.2-0.2,5.8-0.7c1.6-0.5,2.8-1.2,3.7-1.9c0.9-0.7,1.6-1.6,2.1-2.8   c0.5-0.9,0.7-2.1,0.7-3.2v-24.4h10.9V284c0,3-0.5,5.8-1.4,8.4s-2.1,4.9-3.7,6.7c-1.6,1.9-3.7,3.2-6,4.4c-2.3,1.2-5.1,1.6-8.1,1.6   h-4.4L846.1,294.5z M858.9,248.8c0-1.6,0.5-3,1.6-4.2c1.2-1.2,2.6-1.6,3.9-1.6s3,0.5,4.2,1.6c1.2,1.2,1.6,2.6,1.6,4.2   c0,1.6-0.5,3-1.6,3.9c-1.2,1.2-2.6,1.6-4.2,1.6s-3-0.5-3.9-1.6C859.3,251.6,858.9,250.4,858.9,248.8z"/>
	<path class="st1" d="M891.1,287.5c-3.7,0-6.3-1.2-7.9-3.5c-1.6-2.3-2.6-5.3-2.6-9.3v-36.2h10.9v34.1c0,1.9,0.2,2.8,0.7,3.2   c0.5,0.5,1.6,0.7,3.2,0.7h1.6v10.9H891.1z"/>
	<path class="st1" d="M894.8,277.3c0-0.2,0.2-0.5,0.7-0.5s0.9-0.2,1.6-0.2h7c1.9,0,3-1.2,3-3.2v-11.8H918v12.1c0,1.4,0.2,2.3,1.2,3   c0.7,0.7,1.4,0.9,2.3,0.9s1.6-0.2,2.6-0.9c0.7-0.7,1.2-1.6,1.2-3v-12.1h10.7v12.1c0,1.4,0.5,2.3,1.2,3c0.7,0.7,1.6,0.9,2.6,0.9   s1.6-0.2,2.3-0.9c0.7-0.7,1.2-1.6,1.2-3v-12.1H954v12.5c0,2.1-0.2,3.9-0.7,5.8s-1.2,3.2-2.3,4.4c-0.9,1.2-2.3,2.3-3.7,3   c-1.6,0.7-3.2,1.2-5.3,1.2c-4.2,0-7.4-1.4-9.5-4.4c-1.2,1.4-2.6,2.6-4.4,3.2c-1.6,0.7-3.5,1.2-5.1,1.2c-1.9,0-3.5-0.5-5.1-1.2   c-1.6-0.7-2.8-1.9-3.9-3.2c-0.9,0.9-2.1,1.9-3.5,2.6c-1.4,0.7-3.2,0.9-5.8,0.9h-7.4c-0.5,0-0.9,0-1.6-0.2c-0.5-0.2-0.7-0.2-0.7-0.5   V277.3z"/>
	<path class="st1" d="M200.8,401.5v1.2c0,2.6-0.5,4.6-1.4,6.7c-0.9,2.1-2.1,3.7-3.7,5.1c-1.6,1.4-3.5,2.6-5.6,3.2   c-2.1,0.7-4.4,1.2-6.7,1.2h-10.9c-3.2,0-6.3-0.5-8.6-1.2c-2.3-0.7-4.4-2.1-6-3.7c-1.6-1.6-2.8-3.9-3.5-6.5   c-0.7-2.6-1.2-5.8-1.2-9.5v-15.5h10.9v17.4c0,2.3,0.7,4.4,2.3,6c1.6,1.6,3.9,2.6,7.4,2.6h11.1c0.7,0,1.2-0.2,1.9-0.5   s1.2-0.7,1.6-1.2c0.5-0.5,0.9-0.9,1.2-1.6c0.2-0.5,0.5-1.2,0.5-1.6c0-0.5-0.2-0.9-0.7-1.4c-0.5-0.5-1.2-0.7-2.3-0.7h-11.8   l-1.2-10.9h28.3v10.9L200.8,401.5L200.8,401.5z"/>
	<path class="st1" d="M200.8,391.5c0-0.2,0.2-0.5,0.7-0.5s0.9-0.2,1.6-0.2h10.7c2.3,0,3.2-1.2,3.2-3.5v-11.6H228v12.5   c0,1.6-0.2,3.2-0.9,4.9c-0.7,1.6-1.4,3-2.6,4.2c-0.9,1.2-2.3,2.3-3.7,3c-1.4,0.7-3,1.2-4.6,1.2h-13c-0.5,0-0.9,0-1.6-0.2   c-0.5-0.2-0.7-0.2-0.7-0.5L200.8,391.5L200.8,391.5z M211.7,415.6c0-1.6,0.5-3,1.6-3.9c1.2-0.9,2.6-1.6,3.9-1.6   c1.6,0,3,0.5,4.2,1.6c1.2,1.2,1.6,2.6,1.6,3.9c0,1.6-0.5,3-1.6,4.2c-1.2,1.2-2.6,1.6-4.2,1.6c-1.6,0-3-0.5-3.9-1.6   C212.2,418.6,211.7,417.2,211.7,415.6z"/>
	<path class="st1" d="M255.8,401.5c-1.4,0-2.6-0.5-3.5-1.2c0,3-0.7,5.8-1.9,8.1c-1.2,2.3-2.8,4.4-4.4,5.8c-1.9,1.6-3.9,2.8-6.3,3.5   c-2.3,0.7-4.6,1.2-7,1.2h-4.2l-1.6-10.7h2.1c2.3,0,4.2-0.2,5.8-0.7c1.6-0.5,2.8-1.2,3.7-1.9c0.9-0.7,1.6-1.6,2.1-2.8   c0.5-0.9,0.7-2.1,0.7-3.2v-24.4h10.9V388c0.2,1.6,1.4,2.3,3.2,2.3h1.6v10.9h-1.4V401.5z"/>
	<path class="st1" d="M254.9,391.5c0-0.2,0.2-0.5,0.7-0.5c0.5,0,0.9-0.2,1.6-0.2h5.3c-0.9-2.6-1.4-4.9-1.4-7c0-1.9,0.5-3.9,1.2-5.6   c0.7-1.9,1.6-3.2,3-4.6c1.4-1.4,2.8-2.6,4.6-3.2c1.9-0.7,3.9-1.2,6-1.2c2.8,0,5.6,0.7,8.1,1.9c2.6,1.2,5.1,3,7.2,5.1l-5.6,9.3   c-0.7-0.5-1.6-1.2-2.6-1.9c-0.9-0.7-1.9-1.2-2.6-1.6c-0.9-0.5-1.6-0.9-2.3-1.4c-0.7-0.2-1.4-0.5-1.9-0.5c-1.6,0-2.8,0.5-3.5,1.6   c-0.7,1.2-1.2,2.6-1.2,4.2c0,1.2,0.2,2.3,0.9,3.5c0.7,0.9,1.6,1.6,3,1.6h15.8l1.4,10.9h-36c-0.5,0-0.9,0-1.6-0.2   c-0.5-0.2-0.7-0.2-0.7-0.5v-9.7H254.9z M270.2,357.4c0-1.6,0.5-3,1.6-4.2c1.2-1.2,2.6-1.6,3.9-1.6c1.6,0,3,0.5,4.2,1.6   c1.2,1.2,1.6,2.6,1.6,4.2c0,1.6-0.5,3-1.6,3.9c-1.2,1.2-2.6,1.6-4.2,1.6s-3-0.5-3.9-1.6C270.9,360.4,270.2,359,270.2,357.4z"/>
	<path class="st1" d="M366.3,400.3c0,2.8-0.5,5.3-1.6,7.7s-2.6,4.4-4.2,6c-1.9,1.6-3.7,3-6,3.9c-2.3,0.9-4.6,1.4-7.2,1.4h-12.3   c-2.8,0-5.3-0.5-7.4-1.6c-2.1-1.2-3.9-2.6-5.6-4.2c-1.4-1.9-2.6-3.9-3.5-6.3c-0.7-2.3-1.2-4.9-1.2-7.4v-17.2h10.9v16.9   c0,1.2,0.2,2.3,0.7,3.2c0.5,1.2,1.2,2.1,1.9,2.8c0.7,0.9,1.9,1.4,2.8,2.1c1.2,0.5,2.3,0.7,3.7,0.7h8.4c3.2,0,5.6-0.7,7.4-2.3   c1.9-1.6,2.6-3.7,2.6-6.5v-23.9h10.9v24.6H366.3z M334.9,376.9c0-1.6,0.5-3,1.6-4.2s2.6-1.6,3.9-1.6c1.6,0,3,0.5,4.2,1.6   c1.2,1.2,1.6,2.6,1.6,4.2c0,1.6-0.5,3-1.6,3.9c-1.2,1.2-2.6,1.6-4.2,1.6s-3-0.5-3.9-1.6C335.6,379.9,334.9,378.5,334.9,376.9z"/>
	<path class="st1" d="M386.2,401.5c-3.7,0-6.3-1.2-7.9-3.5c-1.6-2.3-2.6-5.3-2.6-9.3v-36.2h10.9v34.3c0,1.9,0.2,2.8,0.7,3.2   c0.5,0.5,1.6,0.7,3.2,0.7h1.6v10.9h-6V401.5z"/>
	<path class="st1" d="M432.9,401.5c-5.3,0-9.3-2.3-12.1-7.2l-3,1.6c-3.2,1.9-6,3.2-8.8,4.2c-2.6,0.9-5.6,1.4-8.8,1.4H392   c-0.5,0-0.9,0-1.6-0.2c-0.5-0.2-0.7-0.2-0.7-0.5v-9.3c0-0.2,0.2-0.5,0.7-0.5c0.5,0,0.9-0.2,1.6-0.2h6.3c2.3,0,4.6-0.2,6.3-0.5   c1.9-0.2,3.5-0.7,4.9-1.4c0.5-0.2,1.6-0.7,3.7-1.9c2.1-1.2,4.9-2.8,8.6-4.6c-0.2-0.9-0.7-1.6-1.6-2.3c-0.9-0.7-2.6-0.9-4.9-0.9H399   l-1.6-10.7h19.7c5.3,0,9.5,1.6,12.1,4.9c2.6,3.2,3.9,7.9,3.9,13.9l-5.1,2.8c0.5,0.5,1.2,0.5,2.3,0.5h4.6v10.9L432.9,401.5   L432.9,401.5z M406.2,415.8c0-1.6,0.5-3,1.6-3.9c1.2-1.2,2.6-1.6,3.9-1.6c1.6,0,3,0.5,4.2,1.6c1.2,1.2,1.6,2.6,1.6,3.9   c0,1.6-0.5,3-1.6,4.2s-2.6,1.6-4.2,1.6c-1.6,0-3-0.5-3.9-1.6C406.6,418.9,406.2,417.5,406.2,415.8z"/>
	<path class="st1" d="M430.5,415.6c0-1.6,0.5-3,1.6-3.9c1.2-1.2,2.6-1.6,3.9-1.6c1.6,0,3,0.5,4.2,1.6c1.2,1.2,1.6,2.6,1.6,3.9   c0,1.6-0.5,3-1.6,4.2c-1.2,1.2-2.6,1.6-4.2,1.6c-1.6,0-3-0.5-3.9-1.6C431.2,418.6,430.5,417.2,430.5,415.6z M433.3,391.5   c0-0.2,0.2-0.5,0.7-0.5c0.5,0,0.9-0.2,1.6-0.2h10.7c2.3,0,3.2-1.2,3.2-3.5v-11.6h10.9v12.5c0,1.6-0.2,3.2-0.9,4.9   c-0.7,1.6-1.4,3-2.6,4.2c-0.9,1.2-2.3,2.3-3.7,3c-1.4,0.7-3,1.2-4.6,1.2h-13c-0.5,0-0.9,0-1.6-0.2c-0.5-0.2-0.7-0.2-0.7-0.5V391.5z    M444,415.6c0-1.6,0.5-3,1.6-3.9c1.2-1.2,2.6-1.6,4.2-1.6c1.6,0,3,0.5,4.2,1.6c1.2,1.2,1.6,2.6,1.6,3.9c0,1.6-0.5,3-1.6,4.2   c-1.2,1.2-2.6,1.6-4.2,1.6c-1.6,0-3-0.5-4.2-1.6C444.5,418.6,444,417.2,444,415.6z"/>
	<path class="st1" d="M480.4,401.5c-3.7,0-6.3-1.2-7.9-3.5c-1.6-2.3-2.6-5.3-2.6-9.3v-36.2h10.9v34.3c0,1.9,0.2,2.8,0.7,3.2   c0.5,0.5,1.6,0.7,3.2,0.7h1.6v10.9h-6V401.5z"/>
	<path class="st1" d="M484.1,391.5c0-0.2,0.2-0.5,0.7-0.5c0.5,0,0.9-0.2,1.6-0.2h10.7c2.3,0,3.2-1.2,3.2-3.5v-11.6h10.9v12.5   c0,1.6-0.2,3.2-0.9,4.9c-0.7,1.6-1.4,3-2.6,4.2c-0.9,1.2-2.3,2.3-3.7,3c-1.4,0.7-3,1.2-4.6,1.2h-13c-0.5,0-0.9,0-1.6-0.2   c-0.5-0.2-0.7-0.2-0.7-0.5V391.5z M488.1,415.6c0-1.6,0.5-3,1.6-3.9c1.2-1.2,2.6-1.6,3.9-1.6c1.6,0,3,0.5,4.2,1.6   c1.2,1.2,1.6,2.6,1.6,3.9c0,1.6-0.5,3-1.6,4.2c-1.2,1.2-2.6,1.6-4.2,1.6c-1.6,0-3-0.5-3.9-1.6C488.8,418.6,488.1,417.2,488.1,415.6   z"/>
	<path class="st1" d="M508.5,408.6h2.1c2.3,0,4.2-0.2,5.8-0.7c1.6-0.5,2.8-1.2,3.7-1.9c0.9-0.7,1.6-1.6,2.1-2.8   c0.5-1.2,0.7-2.1,0.7-3.2v-24.4h10.9v22.5c0,3-0.5,5.8-1.4,8.4s-2.1,4.9-3.7,6.7c-1.6,1.9-3.7,3.2-6,4.4c-2.3,0.9-5.1,1.6-8.1,1.6   h-4.2L508.5,408.6z"/>
	<path class="st1" d="M542.6,401.5l-1.4-10.7H566c0.5,0,0.7,0,1.2-0.2c0.2-0.2,0.5-0.5,0.5-0.7c0-0.5-0.2-0.9-0.5-1.2l-16.9-17.9   l7.7-7.7l16.9,17.6c1.4,1.6,2.6,3.2,3.2,4.9c0.7,1.9,0.9,3.5,0.9,5.1c0,1.4-0.2,2.8-0.7,4.2c-0.5,1.4-1.4,2.6-2.3,3.5   c-1.2,0.9-2.3,1.9-3.9,2.3c-1.6,0.5-3.2,0.9-5.3,0.9h-24.1V401.5z M551.7,351.6c0-1.6,0.5-3,1.6-4.2c1.2-1.2,2.6-1.6,3.9-1.6   c1.6,0,3,0.5,4.2,1.6s1.6,2.6,1.6,4.2c0,1.6-0.5,3-1.6,3.9c-1.2,1.2-2.6,1.6-4.2,1.6s-3-0.5-3.9-1.6   C552.4,354.6,551.7,353.2,551.7,351.6z"/>
	<path class="st1" d="M607.6,345.3h-15.8c-2.1,0-3.7,0.2-4.9,0.5c-1.2,0.2-2.1,0.7-2.8,1.4c-0.7,0.5-1.2,1.2-1.6,1.9   s-0.7,1.4-0.9,2.1l-7.4-2.8c0.9-1.9,1.9-3.5,2.8-4.9c0.9-1.4,2.1-2.3,3.2-3.2c1.2-0.9,2.6-1.4,3.9-1.9c1.4-0.5,3.2-0.5,5.3-0.5   h17.9v7.4H607.6z M588.1,401.5v-49H599v49H588.1z"/>
	<path class="st1" d="M672.1,400.3c0,2.8-0.5,5.3-1.6,7.7s-2.6,4.4-4.2,6c-1.9,1.6-3.7,3-6,3.9c-2.3,0.9-4.6,1.4-7.2,1.4h-12.3   c-2.8,0-5.3-0.5-7.4-1.6c-2.1-1.2-3.9-2.6-5.6-4.2c-1.4-1.9-2.6-3.9-3.5-6.3c-0.7-2.3-1.2-4.9-1.2-7.4v-17.2H634v16.9   c0,1.2,0.2,2.3,0.7,3.2c0.5,1.2,1.2,2.1,1.9,2.8c0.7,0.9,1.9,1.4,2.8,2.1c1.2,0.5,2.3,0.7,3.7,0.7h8.4c3.2,0,5.6-0.7,7.4-2.3   c1.9-1.6,2.6-3.7,2.6-6.5v-23.9h10.9v24.6H672.1z M640.8,376.9c0-1.6,0.5-3,1.6-4.2c1.2-1.2,2.6-1.6,3.9-1.6c1.6,0,3,0.5,4.2,1.6   s1.6,2.6,1.6,4.2c0,1.6-0.5,3-1.6,3.9c-1.2,1.2-2.6,1.6-4.2,1.6c-1.6,0-3-0.5-3.9-1.6C641.5,379.9,640.8,378.5,640.8,376.9z"/>
	<path class="st1" d="M692,401.5c-3.7,0-6.3-1.2-7.9-3.5c-1.6-2.3-2.6-5.3-2.6-9.3v-36.2h10.9v34.3c0,1.9,0.2,2.8,0.7,3.2   c0.5,0.5,1.6,0.7,3.2,0.7h1.6v10.9h-6V401.5z"/>
	<path class="st1" d="M722.4,401.5c-1.9,0-3.5-0.7-4.9-2.1c-0.7,0.7-1.4,1.2-2.3,1.6s-1.9,0.5-2.8,0.5h-14.4c-0.5,0-0.9,0-1.6-0.2   c-0.5-0.2-0.7-0.2-0.7-0.5v-9.3c0-0.2,0.2-0.5,0.7-0.5c0.5,0,0.9-0.2,1.6-0.2H709c2.1,0,3.2-1.2,3.2-3.5v-11.6h10.9v11.6   c0,2.3,1.2,3.5,3.2,3.5h1.6v10.9h-5.6V401.5z M700.4,362.7c0-1.6,0.5-3,1.6-4.2s2.6-1.6,3.9-1.6c1.6,0,3,0.5,4.2,1.6   s1.6,2.6,1.6,4.2c0,1.6-0.5,3-1.6,3.9c-1.2,1.2-2.6,1.6-4.2,1.6c-1.6,0-3-0.5-3.9-1.6C700.9,365.7,700.4,364.3,700.4,362.7z    M713.8,362.7c0-1.6,0.5-3,1.6-4.2c1.2-1.2,2.6-1.6,4.2-1.6c1.6,0,3,0.5,4.2,1.6s1.6,2.6,1.6,4.2c0,1.6-0.5,3-1.6,3.9   c-1.2,1.2-2.6,1.6-4.2,1.6s-3-0.5-4.2-1.6C714.3,365.7,713.8,364.3,713.8,362.7z"/>
	<path class="st1" d="M725.4,391.5c0-0.2,0.2-0.5,0.7-0.5s0.9-0.2,1.6-0.2h7c1.9,0,3-1.2,3-3.2v-12.1h10.9v12.1c0,1.4,0.2,2.3,1.2,3   c0.7,0.7,1.4,0.9,2.3,0.9s1.6-0.2,2.6-0.9c0.7-0.7,1.2-1.6,1.2-3v-12.1h10.7v12.1c0,1.4,0.5,2.3,1.2,3c0.7,0.7,1.6,0.9,2.6,0.9   s1.6-0.2,2.3-0.9c0.7-0.7,1.2-1.6,1.2-3v-12.1h10.9V388c0,2.1-0.2,3.9-0.7,5.8s-1.2,3.2-2.3,4.4c-0.9,1.2-2.3,2.3-3.7,3   c-1.6,0.7-3.2,1.2-5.3,1.2c-4.2,0-7.4-1.4-9.5-4.4c-1.2,1.4-2.6,2.6-4.4,3.2c-1.6,0.7-3.5,1.2-5.1,1.2c-1.9,0-3.5-0.5-5.1-1.2   c-1.6-0.7-2.8-1.9-3.9-3.2c-0.9,0.9-2.1,1.9-3.5,2.6c-1.4,0.7-3.2,0.9-5.8,0.9h-7.4c-0.5,0-0.9,0-1.6-0.2c-0.5-0.2-0.7-0.2-0.7-0.5   V391.5z"/>
	<path class="st1" d="M793.7,401.5v-49h10.9v49H793.7z"/>
</g>
</svg>